<svg width="1832" height="1830" viewBox="0 0 1832 1830" fill="none" xmlns="http://www.w3.org/2000/svg">
<path d="M916 1830C1421.53 1830 1831.34 1420.34 1831.34 915C1831.34 409.659 1421.53 0 916 0C410.471 0 0.65918 409.659 0.65918 915C0.65918 1420.34 410.471 1830 916 1830Z" fill="#F2E6DC"/>
<path d="M348.361 1478.36L1704.31 1478.36L1704.31 535.262L348.361 535.262L348.361 1478.36Z" fill="#E6D0BE"/>
<path d="M1661.76 1353.45L1661.76 577.788L390.903 577.788L390.903 1353.45L1661.76 1353.45Z" fill="#F2E6DC"/>
<path d="M1026.41 1436.37C1040.5 1436.34 1051.9 1424.88 1051.87 1410.79C1051.83 1396.7 1040.37 1385.31 1026.28 1385.35C1012.18 1385.38 1000.78 1396.84 1000.82 1410.93C1000.85 1425.02 1012.31 1436.41 1026.41 1436.37Z" fill="#F2E6DC"/>
<path d="M1209.21 1730.81H843.458C842.905 1730.81 842.458 1730.37 842.458 1729.81V1711.98C842.458 1711.92 842.464 1711.86 842.476 1711.8L882.62 1498.54C882.709 1498.07 883.122 1497.73 883.602 1497.73H1169.06C1169.54 1497.73 1169.96 1498.07 1170.05 1498.54L1210.19 1711.8C1210.2 1711.86 1210.21 1711.92 1210.21 1711.98V1729.81C1210.21 1730.37 1209.76 1730.81 1209.21 1730.81ZM844.458 1728.81H1208.21V1712.07L1168.23 1499.72H884.43L844.457 1712.07L844.458 1728.81Z" fill="#BC8271"/>
<path d="M1209.21 1753.11H843.458C842.905 1753.11 842.458 1752.66 842.458 1752.11C842.458 1751.56 842.905 1751.11 843.458 1751.11H1209.21C1209.76 1751.11 1210.21 1751.56 1210.21 1752.11C1210.21 1752.66 1209.76 1753.11 1209.21 1753.11Z" fill="#BC8271"/>
<path d="M812.055 1301.75L785.34 1294.1C786.681 1280.4 786.9 1266.76 786.069 1253.3L813.016 1246.57L790.257 1155.35L763.249 1162.09C757.599 1149.7 750.984 1137.77 743.466 1126.42L763.488 1107.08L698.149 1039.47L678.172 1058.76C667.188 1050.93 655.502 1043.89 643.165 1037.77L650.824 1011.06L560.411 985.175L552.752 1011.88C539.043 1010.55 525.401 1010.33 511.929 1011.17L505.209 984.231L413.949 1007.01L420.684 1034C408.291 1039.66 396.358 1046.27 385 1053.79L365.663 1033.78L298.008 1099.12L317.302 1119.08C309.46 1130.07 302.417 1141.75 296.292 1154.08L269.577 1146.44H269.576L243.656 1236.82L270.371 1244.47C269.03 1258.18 268.811 1271.82 269.642 1285.28L242.695 1292.01L265.453 1383.23L292.461 1376.49C298.111 1388.88 304.726 1400.81 312.243 1412.16L292.221 1431.49L357.561 1499.11L377.538 1479.81C388.522 1487.65 400.208 1494.69 412.545 1500.81L404.886 1527.52L495.299 1553.4L502.958 1526.69C516.666 1528.03 530.309 1528.25 543.78 1527.41L550.5 1554.35L641.76 1531.57L635.025 1504.57C647.418 1498.92 659.351 1492.31 670.709 1484.79L690.046 1504.8L757.7 1439.46L738.407 1419.5C746.249 1408.51 753.291 1396.83 759.417 1384.49L786.132 1392.14L812.055 1301.75ZM685.931 1320.2C659.297 1403.01 571.693 1451.58 487.333 1430.32C394.18 1406.83 340.368 1309.82 369.778 1218.38C396.412 1135.57 484.016 1086.99 568.376 1108.26C661.531 1131.74 715.342 1228.76 685.931 1320.2Z" fill="white"/>
<path d="M527.866 1475.99C508.934 1475.99 489.779 1473.39 470.878 1467.98C417.793 1452.78 373.812 1417.82 347.036 1369.55C320.26 1321.27 313.895 1265.46 329.115 1212.38C342.842 1164.52 373.371 1123.22 415.078 1096.09C456.37 1069.24 505.862 1057.95 554.435 1064.29C554.982 1064.36 555.369 1064.86 555.296 1065.41C555.225 1065.96 554.728 1066.35 554.175 1066.27C454.676 1053.28 358.739 1116.33 331.036 1212.93C315.965 1265.49 322.268 1320.77 348.784 1368.58C375.301 1416.38 418.856 1451 471.427 1466.05C561.101 1491.73 656.799 1453.63 704.151 1373.42C704.432 1372.94 705.046 1372.78 705.521 1373.06C705.997 1373.34 706.154 1373.96 705.874 1374.43C668.041 1438.53 599.63 1475.99 527.866 1475.99Z" fill="#F2E6DC"/>
<path d="M1183.57 1426.32L1325.43 1400.58L1136.78 1343.86C1101.72 1265.1 1090.08 1190.72 1090.08 1190.72C1090.08 1190.72 1123.78 1188.79 1172.13 1193.67L1258.15 1338.23L1250.26 1206.48C1290.27 1215.78 1332.87 1230.3 1371.86 1252.92C1377.34 1256.1 1382.6 1259.41 1387.64 1262.82L1405.45 1462.06L1457.31 1335.82C1490.7 1393.34 1488.24 1456 1458.5 1492.31C1412.87 1548 1295.61 1551.39 1206.64 1454.6C1198.42 1445.66 1190.75 1436.18 1183.57 1426.32Z" fill="#8B865C"/>
<path d="M1172.13 1193.67C1195.47 1196.03 1222.22 1199.97 1250.26 1206.48L1258.14 1338.23L1172.13 1193.67Z" fill="#776E42"/>
<path d="M1387.64 1262.81C1419.01 1284.02 1441.95 1309.37 1457.31 1335.82L1405.45 1462.06L1387.64 1262.81Z" fill="#776E42"/>
<path d="M1183.57 1426.32C1164.66 1400.37 1149.24 1371.84 1136.78 1343.86L1325.43 1400.58L1183.57 1426.32Z" fill="#776E42"/>
<path d="M1498.1 1682.27C1497.62 1682.27 1497.19 1681.92 1497.11 1681.42C1485.81 1607.92 1457.81 1536.93 1416.15 1476.14C1381.65 1425.78 1338.47 1382.62 1287.8 1347.83C1287.35 1347.52 1287.23 1346.9 1287.54 1346.44C1287.86 1345.99 1288.48 1345.87 1288.94 1346.19C1339.8 1381.11 1383.16 1424.45 1417.8 1475.01C1459.63 1536.05 1487.74 1607.32 1499.09 1681.12C1499.17 1681.67 1498.8 1682.18 1498.25 1682.26C1498.2 1682.27 1498.15 1682.27 1498.1 1682.27Z" fill="#776E42"/>
<path d="M1434.75 1381.54L1524.83 1422.59L1436.45 1305.57C1443.59 1237 1462.62 1181.12 1462.62 1181.12C1462.62 1181.12 1482.58 1193.75 1508.57 1217.12L1507.86 1351.94L1548.86 1258.25C1568.54 1281.19 1587.91 1308.79 1602.41 1340.46C1604.45 1344.91 1606.32 1349.36 1608.03 1353.78L1549.4 1497.91L1622.68 1432.73C1621.93 1486.03 1598.88 1528.03 1569.31 1540.64C1523.96 1559.98 1455.67 1513.76 1438.18 1410.49C1436.57 1400.96 1435.45 1391.27 1434.75 1381.54Z" fill="#776E42"/>
<path d="M1508.57 1217.12C1521.11 1228.4 1535.06 1242.18 1548.86 1258.25L1507.86 1351.94L1508.57 1217.12Z" fill="#8B865C"/>
<path d="M1608.03 1353.78C1618.66 1381.32 1623.03 1408.22 1622.69 1432.73L1549.4 1497.91L1608.03 1353.78Z" fill="#8B865C"/>
<path d="M1434.75 1381.54C1432.89 1355.9 1433.92 1329.93 1436.45 1305.57L1524.83 1422.59L1434.75 1381.54Z" fill="#8B865C"/>
<path d="M1526.7 1687.73C1526.6 1687.73 1526.49 1687.71 1526.38 1687.68C1525.86 1687.5 1525.58 1686.93 1525.76 1686.4C1544.68 1631.28 1553.17 1570.98 1550.33 1512.01C1547.98 1463.17 1538.17 1415.67 1521.19 1370.83C1521 1370.32 1521.25 1369.74 1521.77 1369.55C1522.29 1369.35 1522.87 1369.61 1523.06 1370.13C1540.12 1415.16 1549.96 1462.86 1552.33 1511.91C1555.18 1571.13 1546.65 1631.69 1527.65 1687.06C1527.51 1687.47 1527.12 1687.73 1526.7 1687.73Z" fill="#776E42"/>
<path d="M1405.64 1717.86H1637.14V1608.09H1405.64V1717.86Z" fill="#D87355"/>
<path d="M1424.1 179.581H457.715V495.091H1424.1V179.581Z" fill="white"/>
<path d="M1447.59 514.294H481.202C480.65 514.294 480.202 513.846 480.202 513.294V200.524C480.202 199.972 480.65 199.524 481.202 199.524H1447.59C1448.14 199.524 1448.59 199.972 1448.59 200.524V513.294C1448.59 513.847 1448.14 514.294 1447.59 514.294ZM482.202 512.294H1446.59V201.524H482.202V512.294Z" fill="#E2A18D"/>
<path d="M1157.68 263.282H997.149C996.596 263.282 996.149 262.834 996.149 262.282C996.149 261.73 996.596 261.282 997.149 261.282H1157.68C1158.24 261.282 1158.68 261.73 1158.68 262.282C1158.68 262.834 1158.24 263.282 1157.68 263.282Z" fill="#E6D0BE"/>
<path d="M903.198 263.282H545.558C545.005 263.282 544.558 262.834 544.558 262.282C544.558 261.73 545.005 261.282 545.558 261.282H903.199C903.752 261.282 904.199 261.73 904.199 262.282C904.199 262.834 903.751 263.282 903.198 263.282Z" fill="#E6D0BE"/>
<path d="M1157.68 296.792H737.499C736.946 296.792 736.499 296.344 736.499 295.792C736.499 295.24 736.946 294.792 737.499 294.792H1157.68C1158.24 294.792 1158.68 295.24 1158.68 295.792C1158.68 296.345 1158.24 296.792 1157.68 296.792Z" fill="#E6D0BE"/>
<path d="M687.526 296.792H545.558C545.005 296.792 544.558 296.344 544.558 295.792C544.558 295.24 545.005 294.792 545.558 294.792H687.527C688.08 294.792 688.527 295.24 688.527 295.792C688.526 296.345 688.079 296.792 687.526 296.792Z" fill="#E6D0BE"/>
<path d="M1157.68 328.208H997.149C996.596 328.208 996.149 327.76 996.149 327.208C996.149 326.656 996.596 326.208 997.149 326.208H1157.68C1158.24 326.208 1158.68 326.656 1158.68 327.208C1158.68 327.76 1158.24 328.208 1157.68 328.208Z" fill="#E6D0BE"/>
<path d="M903.198 328.208H545.558C545.005 328.208 544.558 327.76 544.558 327.208C544.558 326.656 545.005 326.208 545.558 326.208H903.199C903.752 326.208 904.199 326.656 904.199 327.208C904.198 327.76 903.751 328.208 903.198 328.208Z" fill="#E6D0BE"/>
<path d="M1157.68 361.718H854.938C854.385 361.718 853.938 361.27 853.938 360.718C853.938 360.166 854.385 359.718 854.938 359.718H1157.68C1158.24 359.718 1158.68 360.166 1158.68 360.718C1158.68 361.27 1158.24 361.718 1157.68 361.718Z" fill="#E6D0BE"/>
<path d="M781.478 361.718H545.558C545.005 361.718 544.558 361.27 544.558 360.718C544.558 360.166 545.005 359.718 545.558 359.718H781.478C782.031 359.718 782.478 360.166 782.478 360.718C782.478 361.27 782.03 361.718 781.478 361.718Z" fill="#E6D0BE"/>
<path d="M1157.68 409.889H787.424C786.871 409.889 786.424 409.441 786.424 408.889C786.424 408.337 786.871 407.889 787.424 407.889H1157.68C1158.24 407.889 1158.68 408.337 1158.68 408.889C1158.68 409.441 1158.24 409.889 1157.68 409.889Z" fill="#E6D0BE"/>
<path d="M1157.68 443.398H1011.62C1011.07 443.398 1010.62 442.95 1010.62 442.398C1010.62 441.846 1011.07 441.398 1011.62 441.398H1157.68C1158.24 441.398 1158.68 441.846 1158.68 442.398C1158.68 442.951 1158.24 443.398 1157.68 443.398Z" fill="#E6D0BE"/>
<path d="M954.26 443.398H750.836C750.283 443.398 749.836 442.95 749.836 442.398C749.836 441.846 750.283 441.398 750.836 441.398H954.26C954.813 441.398 955.26 441.846 955.26 442.398C955.26 442.951 954.813 443.398 954.26 443.398Z" fill="#E6D0BE"/>
<path d="M1244.47 282.72L1244.53 329.187C1244.57 354.851 1265.38 375.628 1291.03 375.595C1316.67 375.562 1337.43 354.73 1337.4 329.067L1337.34 282.599L1244.47 282.72Z" fill="#363E44"/>
<path d="M1290.78 304.302C1357.17 304.302 1411 250.439 1411 183.995C1411 117.551 1357.17 63.688 1290.78 63.688C1224.38 63.688 1170.56 117.551 1170.56 183.995C1170.56 250.439 1224.38 304.302 1290.78 304.302Z" fill="#EFBC73"/>
<path d="M1290.67 346.041C1274.85 346.041 1245.46 344.522 1245.45 338.735C1245.45 338.183 1245.9 337.734 1246.45 337.733C1247 337.733 1247.45 338.18 1247.45 338.731C1247.91 340.639 1262.7 344.04 1290.54 344.041C1290.69 344.041 1290.84 344.041 1290.99 344.041C1319.12 344.004 1334.05 340.538 1334.51 338.607C1334.51 338.055 1334.95 337.612 1335.5 337.611C1335.51 337.611 1335.51 337.611 1335.51 337.611C1336.06 337.611 1336.5 338.063 1336.51 338.615C1336.51 344.441 1306.73 346.019 1290.99 346.04C1290.89 346.041 1290.78 346.041 1290.67 346.041Z" fill="white"/>
<path d="M1290.65 325.671C1274.82 325.671 1245.43 324.152 1245.43 318.365C1245.43 317.813 1245.87 317.365 1246.43 317.364C1246.98 317.364 1247.43 317.811 1247.43 318.363C1247.88 320.281 1262.83 323.671 1290.96 323.672C1319.1 323.636 1334.03 320.169 1334.48 318.239C1334.48 317.686 1334.93 317.244 1335.48 317.243C1335.48 317.243 1335.48 317.243 1335.48 317.243C1336.03 317.243 1336.48 317.695 1336.48 318.247C1336.49 324.073 1306.71 325.651 1290.96 325.671C1290.86 325.671 1290.75 325.671 1290.65 325.671Z" fill="white"/>
<path d="M1274.84 276.042C1274.45 276.042 1274.08 275.814 1273.92 275.434L1236.03 186.637C1235.81 186.129 1236.05 185.541 1236.55 185.324C1237.06 185.108 1237.65 185.342 1237.87 185.851L1275.76 274.648C1275.98 275.156 1275.74 275.744 1275.23 275.961C1275.11 276.017 1274.97 276.042 1274.84 276.042Z" fill="#363E44"/>
<path d="M1306.95 276C1306.82 276 1306.69 275.974 1306.56 275.92C1306.05 275.704 1305.82 275.117 1306.03 274.609L1343.7 185.714C1343.91 185.204 1344.5 184.97 1345.01 185.183C1345.52 185.399 1345.75 185.986 1345.54 186.494L1307.87 275.388C1307.71 275.771 1307.34 276 1306.95 276Z" fill="#363E44"/>
<path d="M1269.18 197.961C1264.49 197.961 1259.8 196.827 1255.71 194.498C1255.24 194.225 1255.07 193.614 1255.34 193.134C1255.61 192.653 1256.22 192.486 1256.7 192.759C1265.3 197.656 1276.74 196.858 1284.68 191.016C1277.5 187.16 1271.71 180.676 1269.26 172.854C1267.5 167.239 1267.65 161.751 1269.68 157.4C1272.14 152.131 1277.47 148.808 1282.66 149.321C1288.69 149.916 1292.93 155.204 1294.89 159.954C1299.11 170.216 1296.35 182.92 1288.33 190.559C1292.68 192.381 1297.44 193.197 1302.17 192.716C1315.54 191.362 1327.08 179.827 1328.45 166.454C1328.51 165.905 1329.01 165.505 1329.55 165.561C1330.1 165.617 1330.5 166.108 1330.44 166.658C1328.98 180.94 1316.65 193.26 1302.37 194.706C1296.99 195.25 1291.57 194.226 1286.68 192.003C1281.76 195.929 1275.46 197.961 1269.18 197.961ZM1281.63 151.272C1277.6 151.272 1273.43 154.092 1271.49 158.247C1269.67 162.144 1269.56 167.12 1271.17 172.256C1273.55 179.852 1279.3 186.101 1286.36 189.654C1294.25 182.639 1297.06 170.485 1293.04 160.717C1291.3 156.503 1287.61 151.82 1282.47 151.312C1282.19 151.286 1281.91 151.272 1281.63 151.272Z" fill="white"/>
<path d="M107.971 1703.12L20.6533 1701.81L46.6703 1589.27L135.652 1604.09L107.971 1703.12Z" fill="#84524D"/>
<path d="M229.968 1761.07H3.85449L24.6745 1674.66H113.257L177.314 1694.19C208.708 1702.69 230.257 1730.06 229.968 1761.07Z" fill="#FFD092"/>
<path d="M127.206 1697.53C126.95 1697.53 126.694 1697.43 126.499 1697.24C126.108 1696.85 126.108 1696.21 126.499 1695.82L140.653 1681.67C141.044 1681.28 141.676 1681.28 142.067 1681.67C142.458 1682.06 142.458 1682.7 142.067 1683.09L127.913 1697.24C127.718 1697.43 127.462 1697.53 127.206 1697.53Z" fill="#363E44"/>
<path d="M143.298 1702.35C143.042 1702.35 142.786 1702.26 142.591 1702.06C142.2 1701.67 142.2 1701.04 142.591 1700.65L156.746 1686.5C157.137 1686.11 157.769 1686.11 158.16 1686.5C158.551 1686.89 158.551 1687.52 158.16 1687.91L144.005 1702.06C143.809 1702.26 143.554 1702.35 143.298 1702.35Z" fill="#363E44"/>
<path d="M515.534 1719.96L428.217 1718.65L430.914 1589.27L519.896 1604.09L515.534 1719.96Z" fill="#84524D"/>
<path d="M635.783 1761.07H409.67L429.142 1674.66H519.073L583.13 1694.19C614.523 1702.69 636.073 1730.06 635.783 1761.07Z" fill="#FFD092"/>
<path d="M533.083 1698.96C532.827 1698.96 532.571 1698.86 532.376 1698.67C531.985 1698.28 531.985 1697.65 532.376 1697.26L546.531 1683.11C546.922 1682.71 547.554 1682.71 547.945 1683.11C548.336 1683.5 548.336 1684.13 547.945 1684.52L533.79 1698.67C533.595 1698.87 533.339 1698.96 533.083 1698.96Z" fill="#363E44"/>
<path d="M549.176 1703.79C548.92 1703.79 548.664 1703.69 548.469 1703.5C548.078 1703.1 548.078 1702.47 548.469 1702.08L562.624 1687.93C563.015 1687.54 563.647 1687.54 564.038 1687.93C564.429 1688.32 564.429 1688.96 564.038 1689.35L549.883 1703.5C549.688 1703.69 549.432 1703.79 549.176 1703.79Z" fill="#363E44"/>
<path d="M223.288 849.373C223.288 849.373 169.359 969.32 132.957 1114.87C96.5548 1260.43 31.8398 1625.66 31.8398 1625.66H131.608C131.608 1625.66 328.448 1400.59 345.975 1091.96L406.645 848.024L223.288 849.373Z" fill="#8B865C"/>
<path d="M304.181 1137.78C304.181 1137.78 406.646 1286.03 414.735 1617.57H529.334C529.334 1617.57 612.924 1431.59 565.736 1236.17C518.548 1040.75 441.7 830.505 441.7 830.505H319.011L304.181 1137.78Z" fill="#8B865C"/>
<path d="M337.032 1174.92C336.965 1174.92 336.896 1174.92 336.828 1174.9C336.288 1174.79 335.94 1174.26 336.052 1173.72L356.569 1074.66C356.622 1074.4 356.772 1074.18 356.988 1074.03L386.84 1053.83C387.3 1053.52 387.92 1053.65 388.229 1054.1C388.539 1054.56 388.419 1055.18 387.961 1055.49L358.444 1075.46L338.01 1174.13C337.913 1174.6 337.496 1174.92 337.032 1174.92Z" fill="#F2E6DC"/>
<path d="M435.905 582.09C408.392 576.208 364.042 568.485 323.744 572.828C276.774 577.89 205.755 600.827 175.13 619.097C106.665 659.94 79.4951 695.286 79.4951 695.286L183.317 718.628L134.615 860.216C117.716 909.346 125.006 965.31 153.497 1008.76L226.898 1007.73L215.533 929.181L250.924 1000.11L454.556 863.233L462.185 737.25L593.741 700.665C593.741 700.665 484.173 592.409 435.905 582.09Z" fill="#EFBC73"/>
<path d="M458.226 781.271C458.226 781.271 516.395 824.111 560.834 810.258C605.273 796.405 613.967 764.53 611.24 745.227C608.513 725.924 536.187 601.545 425.024 578.522C425.024 578.522 414.542 719.996 458.226 781.271Z" fill="#EFBC73"/>
<path d="M459.419 781.498C459.413 781.498 459.408 781.498 459.402 781.498C458.849 781.489 458.41 781.033 458.419 780.481L458.723 762.479C458.734 761.927 459.239 761.489 459.74 761.496C460.293 761.505 460.732 761.961 460.723 762.513L460.419 780.515C460.409 781.061 459.964 781.498 459.419 781.498Z" fill="#363E44"/>
<path d="M185.017 1027.07L249.719 957.165L227.339 872.279L158.816 872.911L94.1143 942.822L128.66 1015.15L185.017 1027.07Z" fill="white"/>
<path d="M710.757 459.013L249.718 957.165L158.815 872.911L619.854 374.76L680.787 400.159L710.757 459.013Z" fill="#D87355"/>
<path d="M41.0168 1000.19C-1.85719 1046.52 -7.83619 1096.9 17.2668 1120.16C42.3688 1143.43 89.0458 1130.77 131.92 1084.45L186.362 1025.62L95.4588 941.368L41.0168 1000.19Z" fill="#363E44"/>
<path d="M619.854 374.76L710.758 459.013L738.473 390.474L729.322 355.988L686.021 341.86L619.854 374.76Z" fill="#F2E6DC"/>
<path d="M686.021 341.86L738.473 390.474L776.277 296.983L686.021 341.86Z" fill="#40484C"/>
<path d="M367.366 755.621C357.208 758.698 312.946 764.739 306.006 784.35C299.017 804.101 306.976 825.771 320.082 842.027C320.166 842.038 320.26 842.051 320.343 842.063C325.535 844.618 333.699 847.645 343.237 846.52C354.11 845.238 356.354 839.789 367.625 836.653C386.65 831.36 399.16 842.175 402.366 835.961C404.567 831.696 397.552 825.078 389.572 820.711C381.38 816.227 374.175 816.78 374.178 815.249C374.182 813.569 381.569 813.953 390.803 813.588C395.093 813.419 407.126 820.195 410.99 814.806C414.071 810.51 403.343 800.332 390.68 797.727C381.722 795.885 373.923 800.176 373.429 798.584C373.058 797.39 377.768 794.946 382.45 794.045C390.175 792.556 402.56 799.357 406.021 794.328C409.411 789.401 399.885 780.677 388.393 777.545C378.704 774.904 370.235 780.103 369.609 778.128C369.169 776.739 372.48 773.627 381.03 769.448C388.167 765.961 404.277 763.763 401.773 755.779C399.668 749.066 382.698 750.975 367.366 755.621Z" fill="#84524D"/>
<path d="M149.958 800.393C127.616 807.452 112.074 828.198 112.592 851.511C112.931 866.796 120.224 882.656 143.996 892.466C201.876 916.353 333.041 834.907 333.041 834.907L349.196 759.905C273.695 772.424 211.454 780.964 149.958 800.393Z" fill="#84524D"/>
<path d="M226.659 780.998L237.499 892.949L138.212 908.297C74.45 918.153 2.50499 854.538 17.432 791.792C30.494 736.887 62.777 706.147 127.631 651.068L212.383 676.253L175.983 783.011L226.659 780.998Z" fill="#EFBC73"/>
<path d="M175.983 784.012C175.876 784.012 175.767 783.994 175.661 783.958C175.138 783.78 174.857 783.212 175.036 782.689L191.484 734.45C191.662 733.927 192.234 733.648 192.753 733.826C193.276 734.004 193.556 734.572 193.377 735.095L176.93 783.334C176.788 783.75 176.399 784.012 175.983 784.012Z" fill="#363E44"/>
<path d="M123.98 910.399C117.962 910.399 111.991 909.81 106.114 908.633C105.572 908.525 105.221 907.998 105.33 907.456C105.438 906.914 105.964 906.563 106.507 906.672C116.82 908.737 127.435 908.952 138.059 907.309L236.413 892.105L233.907 866.226C233.853 865.677 234.256 865.188 234.805 865.135C235.362 865.082 235.843 865.484 235.897 866.034L238.495 892.853C238.547 893.38 238.177 893.856 237.652 893.937L138.364 909.285C133.56 910.028 128.755 910.399 123.98 910.399Z" fill="#363E44"/>
<path d="M160.965 784.609C160.431 784.609 159.988 784.187 159.967 783.649C159.945 783.097 160.374 782.632 160.926 782.61L226.619 779.999C227.183 779.981 227.637 780.406 227.658 780.958C227.681 781.51 227.251 781.975 226.699 781.997L161.006 784.608C160.992 784.608 160.978 784.609 160.965 784.609Z" fill="#363E44"/>
<path d="M457.715 699.16L528.208 777.219C547.288 798.346 580.027 799.629 600.702 780.059C623.142 758.818 621.514 722.621 597.258 703.479L515.866 639.247L457.715 699.16Z" fill="#84524D"/>
<path d="M503.73 679.044C515.346 680.919 518.889 686.867 517.845 693.331C516.801 699.795 511.565 704.326 499.949 702.452C488.333 700.577 474.735 693.006 475.779 686.542C476.823 680.078 492.114 677.169 503.73 679.044Z" fill="#84524D"/>
<path d="M504.796 656.281C518.259 658.454 522.366 665.348 521.156 672.84C519.946 680.332 513.878 685.584 500.414 683.411C486.951 681.238 471.191 672.463 472.401 664.971C473.611 657.479 491.332 654.108 504.796 656.281Z" fill="#84524D"/>
<path d="M509.785 641.555C521.401 643.43 526.637 638.898 527.681 632.434C528.725 625.97 525.182 620.022 513.566 618.147C501.95 616.272 486.66 619.181 485.615 625.645C484.57 632.109 498.168 639.68 509.785 641.555Z" fill="#84524D"/>
<path d="M503.629 663.496C517.092 665.669 523.161 660.417 524.371 652.925C525.581 645.433 521.474 638.539 508.011 636.366C494.548 634.193 476.826 637.564 475.616 645.056C474.406 652.548 490.166 661.323 503.629 663.496Z" fill="#84524D"/>
<path d="M254.191 625.185L248.99 625.102C233.551 624.855 221.235 612.14 221.482 596.701L223.052 498.513C223.299 483.074 236.014 470.759 251.453 471.006L256.654 471.089C272.093 471.336 284.409 484.051 284.162 499.49L282.592 597.678C282.345 613.116 269.629 625.432 254.191 625.185Z" fill="#84524D"/>
<path d="M325.97 531.627C322.085 550.626 267.03 553.304 267.03 553.304L213.433 537.251C194.798 517.32 195.854 486.063 215.792 467.434C235.73 448.806 267 449.862 285.635 469.793C285.635 469.793 329.927 512.276 325.97 531.627Z" fill="#84524D"/>
<path d="M290.358 483.159C290.358 483.159 310.399 484.303 312.478 487.606C314.96 491.549 305.586 504.126 305.586 504.126C305.586 504.126 290.651 482.933 290.358 483.159Z" fill="#84524D"/>
<path d="M252.058 502.99C252.058 502.99 256.133 495.866 263.528 491.253C265.101 490.272 269.989 504.708 268.051 504.927C259.529 505.89 252.058 502.99 252.058 502.99Z" fill="white"/>
<mask id="mask0_25_825" style="mask-type:luminance" maskUnits="userSpaceOnUse" x="252" y="487" width="39" height="19">
<path d="M252.058 502.99C252.058 502.99 258.052 492.512 268.691 488.744C279.33 484.976 290.587 489.345 290.587 489.345C290.587 489.345 284.593 499.823 273.954 503.591C263.314 507.359 252.058 502.99 252.058 502.99Z" fill="white"/>
</mask>
<g mask="url(#mask0_25_825)">
<path d="M263.639 490.735C265.478 482.796 273.407 477.849 281.349 479.687C289.291 481.525 294.239 489.451 292.4 497.391C290.561 505.33 282.632 510.276 274.69 508.439C266.748 506.601 261.8 498.674 263.639 490.735Z" fill="#363E44"/>
</g>
<path d="M171.504 502.354C171.504 502.354 189.945 556.578 229.292 548.005L231.428 535.906L254.212 529.153L230.73 514.49C222.529 508.113 222.213 495.831 230.074 489.042L264.393 459.403L247.464 441.996C212.599 448.355 185.921 466.517 171.504 502.354Z" fill="#363E44"/>
<path d="M204.481 463.693C201.494 467.951 195.62 468.983 191.36 465.998C187.1 463.013 183.839 455.578 186.825 451.32C189.812 447.062 197.916 447.593 202.175 450.578C206.435 453.563 207.467 459.435 204.481 463.693Z" fill="#363E44"/>
<path d="M211.52 460.975C206.84 463.246 201.204 461.294 198.932 456.616C196.66 451.938 197.423 443.855 202.104 441.584C206.784 439.313 213.609 443.713 215.881 448.392C218.152 453.07 216.2 458.704 211.52 460.975Z" fill="#363E44"/>
<path d="M226.699 455.288C219.916 457.213 212.856 453.277 210.93 446.497C209.004 439.717 211.933 429.11 218.716 427.185C225.499 425.26 233.567 432.744 235.493 439.525C237.419 446.306 233.482 453.363 226.699 455.288Z" fill="#363E44"/>
<path d="M194.05 474.399C191.202 478.751 185.364 479.972 181.01 477.126C176.656 474.28 173.156 466.954 176.004 462.601C178.852 458.249 186.968 458.518 191.323 461.364C195.676 464.211 196.898 470.047 194.05 474.399Z" fill="#363E44"/>
<path d="M237.033 449.251C231.304 446.689 228.737 439.97 231.3 434.243C233.863 428.516 241.926 422.953 247.655 425.516C253.384 428.078 254.609 437.795 252.046 443.522C249.484 449.247 242.762 451.813 237.033 449.251Z" fill="#363E44"/>
<path d="M187.497 484.858C185.007 490.84 178.137 493.672 172.152 491.182C166.168 488.693 160.203 480.522 162.693 474.54C165.183 468.558 175.185 467.029 181.17 469.519C187.155 472.009 189.987 478.876 187.497 484.858Z" fill="#363E44"/>
<path d="M179.917 493.927C180.244 498.974 176.417 503.331 171.368 503.658C166.319 503.985 159.319 500.331 158.991 495.284C158.664 490.237 165.133 485.709 170.182 485.382C175.231 485.054 179.589 488.88 179.917 493.927Z" fill="#363E44"/>
<path d="M248.59 457.901C242.939 452.745 242.54 443.985 247.698 438.337C252.856 432.689 264.319 429.333 269.969 434.49C275.62 439.646 273.319 451.362 268.161 457.011C263.003 462.659 254.241 463.058 248.59 457.901Z" fill="#363E44"/>
<path d="M206.565 543.938C209.789 552.778 219.572 557.332 228.416 554.109C237.26 550.886 241.816 541.107 238.591 532.267C235.367 523.427 225.584 518.873 216.741 522.095C207.896 525.319 203.341 535.098 206.565 543.938Z" fill="#84524D"/>
<path d="M310.128 497.045L334.373 530.705C337.749 535.391 336.53 541.934 331.703 545.106C330.489 545.904 329.166 546.753 327.746 547.637C303.181 562.933 272.447 564.468 246.495 551.664C237.801 547.375 232.659 538.165 233.57 528.517L233.87 525.337L242.83 523.173C242.83 523.173 262.443 535.687 269.811 531.252C277.179 526.817 284.178 511.281 310.128 497.045Z" fill="#363E44"/>
<path d="M297.807 521.583C295.309 521.583 292.885 520.387 291.376 518.333C291.049 517.888 291.144 517.262 291.59 516.935C292.034 516.606 292.66 516.703 292.987 517.148C294.322 518.964 296.607 519.885 298.813 519.494C301.1 519.087 302.949 517.358 303.523 515.089C303.659 514.554 304.202 514.228 304.738 514.365C305.274 514.5 305.597 515.044 305.463 515.58C304.695 518.609 302.223 520.918 299.163 521.463C298.712 521.544 298.258 521.583 297.807 521.583Z" fill="#84524D"/>
<path d="M196.961 500.769C196.437 500.769 195.996 500.361 195.964 499.831C195.93 499.28 196.35 498.805 196.9 498.771L221.857 497.238C222.435 497.208 222.882 497.623 222.917 498.175C222.951 498.726 222.531 499.201 221.981 499.235L197.024 500.768C197.002 500.769 196.981 500.769 196.961 500.769Z" fill="#84524D"/>
<path d="M1743.97 600.97H813.58V1119.04H1743.97V600.97Z" fill="white"/>
<path d="M1766.58 1142.11H836.192C835.639 1142.11 835.192 1141.66 835.192 1141.11V623.042C835.192 622.49 835.639 622.042 836.192 622.042H1766.58C1767.14 622.042 1767.58 622.49 1767.58 623.042V1141.11C1767.58 1141.66 1767.14 1142.11 1766.58 1142.11ZM837.192 1140.11H1765.58V624.042H837.192V1140.11Z" fill="#E2A18D"/>
<path d="M1383.48 695.249H890.595V1049.36H1383.48V695.249Z" fill="#F7F1EB"/>
<path d="M1138.78 932.776C1186.28 932.776 1224.79 894.241 1224.79 846.706C1224.79 799.171 1186.28 760.636 1138.78 760.636C1091.28 760.636 1052.78 799.171 1052.78 846.706C1052.78 894.241 1091.28 932.776 1138.78 932.776Z" fill="#E6D0BE"/>
<path d="M1189.46 846.707L1108.47 799.913V893.5L1189.46 846.707Z" fill="white"/>
<path d="M1361.72 993.995H915.85V1017.09H1361.72V993.995Z" fill="#E6D0BE"/>
<path d="M1630.11 815.121H1458.26C1433.28 815.121 1412.96 794.799 1412.96 769.819C1412.96 744.754 1433.28 724.431 1458.26 724.431H1630.11C1655.09 724.431 1675.41 744.753 1675.41 769.733C1675.41 794.798 1655.09 815.121 1630.11 815.121ZM1458.26 726.431C1434.38 726.431 1414.96 745.856 1414.96 769.733C1414.96 793.696 1434.38 813.121 1458.26 813.121H1630.11C1653.98 813.121 1673.41 793.696 1673.41 769.819C1673.41 745.857 1653.98 726.431 1630.11 726.431H1458.26Z" fill="#EFBC73"/>
<path d="M1630.11 961.197H1458.26C1433.79 961.197 1413.96 941.362 1413.96 916.895V916.809C1413.96 892.342 1433.79 872.507 1458.26 872.507H1630.11C1654.57 872.507 1674.41 892.342 1674.41 916.809V916.895C1674.41 941.362 1654.57 961.197 1630.11 961.197Z" fill="#EFBC73"/>
<path d="M1600.1 1048.55C1600 1048.55 1599.9 1048.54 1599.79 1048.5C1599.4 1048.38 1599.13 1048.02 1599.11 1047.61L1590.83 907.874C1590.81 907.467 1591.03 907.087 1591.4 906.912C1591.76 906.736 1592.2 906.802 1592.5 907.078L1695.68 1001.6C1695.99 1001.87 1696.09 1002.31 1695.94 1002.69C1695.79 1003.07 1695.43 1003.33 1695.02 1003.33L1637.49 1003.79L1600.88 1048.19C1600.68 1048.42 1600.4 1048.55 1600.1 1048.55ZM1592.97 910.219L1600.95 1044.95L1636.25 1002.15C1636.43 1001.92 1636.71 1001.79 1637.01 1001.79L1692.46 1001.35L1592.97 910.219Z" fill="#776E42"/>
<path opacity="0.5" d="M437.106 9.56299H863.242V126.363H823.077V212.032L737.378 126.363H437.106V9.56299Z" fill="white"/>
<path d="M809.893 226.212C809.633 226.212 809.377 226.11 809.186 225.919L723.779 140.543H423.922C423.369 140.543 422.922 140.095 422.922 139.543V22.7429C422.922 22.1909 423.369 21.7429 423.922 21.7429H850.057C850.61 21.7429 851.057 22.1909 851.057 22.7429V139.543C851.057 140.095 850.61 140.543 850.057 140.543H810.893V225.212C810.893 225.616 810.65 225.981 810.276 226.136C810.151 226.188 810.021 226.212 809.893 226.212ZM424.922 138.543H724.193C724.459 138.543 724.713 138.648 724.9 138.836L808.893 222.798V139.543C808.893 138.991 809.34 138.543 809.893 138.543H849.057V23.7429H424.922V138.543Z" fill="#E6D0BE"/>
<path d="M800.353 66.6421L781.374 69.0431L794.825 82.6401L791.245 101.425L808.338 92.8401L825.104 102.048L822.217 83.1441L836.16 70.0511L817.282 66.9531L809.133 49.6521L800.353 66.6421Z" fill="#D87355"/>
<path d="M721.24 66.6421L702.261 69.0431L715.712 82.6401L712.131 101.425L729.225 92.8401L745.991 102.048L743.104 83.1441L757.046 70.0511L738.169 66.9531L730.02 49.6521L721.24 66.6421Z" fill="#D87355"/>
<path d="M642.126 66.6421L623.147 69.0431L636.598 82.6401L633.017 101.425L650.111 92.8401L666.877 102.048L663.99 83.1441L677.932 70.0511L659.055 66.9531L650.906 49.6521L642.126 66.6421Z" fill="#D87355"/>
<path d="M563.013 66.6421L544.035 69.0431L557.486 82.6401L553.905 101.425L570.999 92.8401L587.764 102.048L584.878 83.1441L598.82 70.0511L579.943 66.9531L571.794 49.6521L563.013 66.6421Z" fill="#D87355"/>
<path d="M483.901 66.6421L464.922 69.0431L478.373 82.6401L474.792 101.425L491.886 92.8401L508.651 102.048L505.765 83.1441L519.707 70.0511L500.83 66.9531L492.681 49.6521L483.901 66.6421Z" fill="#D87355"/>
</svg>
